grf
version=1
nRows=6
nColumns=37
inDegrees=no
endheader
time	ground_force_1_vx	ground_force_1_vy	ground_force_1_vz	ground_force_1_px	ground_force_1_py	ground_force_1_pz	ground_moment_1_mx	ground_moment_1_my	ground_moment_1_mz	ground_force_2_vx	ground_force_2_vy	ground_force_2_vz	ground_force_2_px	ground_force_2_py	ground_force_2_pz	ground_moment_2_mx	ground_moment_2_my	ground_moment_2_mz	ground_force_3_vx	ground_force_3_vy	ground_force_3_vz	ground_force_3_px	ground_force_3_py	ground_force_3_pz	ground_moment_3_mx	ground_moment_3_my	ground_moment_3_mz	ground_force_4_vx	ground_force_4_vy	ground_force_4_vz	ground_force_4_px	ground_force_4_py	ground_force_4_pz	ground_moment_4_mx	ground_moment_4_my	ground_moment_4_mz
      0.00000000	      0.00000000	     -0.00000000	      0.00000000	      0.00000000	      0.00000000	      0.00000000	      0.00000000	      0.00000000	      0.00000000	     -1.77930272	     30.44635010	   -307.14233398	   -327.36319477	  -1069.64156655	      0.00000000	      0.00000000	      0.00000000	   4317.18924311	     -2.76776982	    -35.53181433	   -316.33135986	   -315.38292171	   -730.94042032	      0.00000000	      0.00000000	     -0.00000000	  -4526.24444746	      0.00000000	     -0.00000000	      0.00000000	      0.00000000	      0.00000000	      0.00000000	      0.00000000	      0.00000000	      0.00000000
      0.01000000	      0.00000000	     -0.00000000	      0.00000000	      0.00000000	      0.00000000	      0.00000000	      0.00000000	      0.00000000	      0.00000000	     -1.49565315	     30.28343010	   -307.37033081	   -327.95177678	  -1070.73359336	      0.00000000	      0.00000000	      0.00000000	   4429.14102327	     -2.40482711	    -35.38595942	   -316.92593384	   -315.84195549	   -731.08731229	      0.00000000	      0.00000000	     -0.00000000	  -4662.41083824	      0.00000000	     -0.00000000	      0.00000000	      0.00000000	      0.00000000	      0.00000000	      0.00000000	      0.00000000	      0.00000000
      0.02000000	      0.00000000	     -0.00000000	      0.00000000	      0.00000000	      0.00000000	      0.00000000	      0.00000000	      0.00000000	      0.00000000	     -1.18576849	     30.22631073	   -306.70727539	   -328.51903368	  -1069.86816321	      0.00000000	      0.00000000	      0.00000000	   4411.60149531	     -2.79731200	    -35.24541830	   -317.35879517	   -316.41801622	   -731.29276793	      0.00000000	      0.00000000	     -0.00000000	  -4713.11213133	      0.00000000	     -0.00000000	      0.00000000	      0.00000000	      0.00000000	      0.00000000	      0.00000000	      0.00000000	      0.00000000
      0.03000000	      0.00000000	     -0.00000000	      0.00000000	      0.00000000	      0.00000000	      0.00000000	      0.00000000	      0.00000000	      0.00000000	     -0.89210510	     30.60339737	   -309.05575562	   -328.79912757	  -1071.26265187	      0.00000000	      0.00000000	      0.00000000	   4527.17347075	     -3.60577132	    -35.68735091	   -319.12457275	   -316.44316352	   -731.95817080	      0.00000000	      0.00000000	     -0.00000000	  -4671.67971707	      0.00000000	     -0.00000000	      0.00000000	      0.00000000	      0.00000000	      0.00000000	      0.00000000	      0.00000000	      0.00000000
      0.04000000	      0.00000000	     -0.00000000	      0.00000000	      0.00000000	      0.00000000	      0.00000000	      0.00000000	      0.00000000	      0.00000000	     -1.96263123	     30.50813675	   -310.42037964	   -328.19221627	  -1070.42938786	      0.00000000	      0.00000000	      0.00000000	   4681.29179008	     -4.11798501	    -35.40547526	   -319.69891357	   -314.76846269	   -731.41737082	      0.00000000	      0.00000000	     -0.00000000	  -4724.05880205	      0.00000000	     -0.00000000	      0.00000000	      0.00000000	      0.00000000	      0.00000000	      0.00000000	      0.00000000	      0.00000000
      0.05000000	      0.00000000	     -0.00000000	      0.00000000	      0.00000000	      0.00000000	      0.00000000	      0.00000000	      0.00000000	      0.00000000	     -2.93735647	     30.52665329	   -311.37829590	   -327.31306710	  -1071.27308334	      0.00000000	      0.00000000	      0.00000000	   4735.10128245	     -4.23262575	    -35.77028619	   -319.89916992	   -314.55707573	   -731.36450949	      0.00000000	      0.00000000	     -0.00000000	  -4749.27665935	      0.00000000	     -0.00000000	      0.00000000	      0.00000000	      0.00000000	      0.00000000	      0.00000000	      0.00000000	      0.00000000
